<svg xmlns="http://www.w3.org/2000/svg" xmlns:xlink="http://www.w3.org/1999/xlink" width="1920" zoomAndPan="magnify" viewBox="0 0 1440 809.999993" height="1080" preserveAspectRatio="xMidYMid meet" version="1.2"><defs><clipPath id="d24f7066e5"><path d="M 545 276.808594 L 816 276.808594 L 816 533.308594 L 545 533.308594 Z M 545 276.808594 "/></clipPath><clipPath id="e96f9ed1f1"><path d="M 545 352 L 884 352 L 884 533.308594 L 545 533.308594 Z M 545 352 "/></clipPath></defs><g id="7b8cf0e2c9"><g clip-rule="nonzero" clip-path="url(#d24f7066e5)"><path style=" stroke:none;fill-rule:nonzero;fill:#efb054;fill-opacity:1;" d="M 545.761719 533.277344 L 545.761719 316.292969 C 545.761719 316.292969 544.261719 301.910156 582.238281 303.140625 L 582.238281 276.839844 C 582.238281 276.839844 624.539062 278.484375 647.542969 276.839844 L 665.617188 301.496094 L 785.960938 306.429688 C 785.960938 306.429688 817.582031 307.785156 815.535156 329.445312 C 813.480469 351.101562 815.203125 533.277344 815.203125 533.277344 Z M 545.761719 533.277344 "/></g><path style=" stroke:none;fill-rule:nonzero;fill:#ffffff;fill-opacity:1;" d="M 568.546875 315.746094 L 777.746094 315.746094 L 777.746094 518.484375 L 568.546875 518.484375 Z M 568.546875 315.746094 "/><g clip-rule="nonzero" clip-path="url(#e96f9ed1f1)"><path style=" stroke:none;fill-rule:nonzero;fill:#f4db73;fill-opacity:1;" d="M 545.761719 533.277344 C 545.761719 533.277344 603.261719 370.539062 627.910156 360.675781 C 652.550781 350.8125 864.492188 347.523438 882.5625 360.675781 C 882.5625 360.675781 895.707031 375.46875 815.203125 533.277344 Z M 545.761719 533.277344 "/></g></g></svg>