<svg xmlns="http://www.w3.org/2000/svg" xmlns:xlink="http://www.w3.org/1999/xlink" width="1920" zoomAndPan="magnify" viewBox="0 0 1440 809.999993" height="1080" preserveAspectRatio="xMidYMid meet" version="1.2"><g id="2254fc2e42"><path style=" stroke:none;fill-rule:nonzero;fill:#185c37;fill-opacity:1;" d="M 761.90625 406.125 L 703.203125 381.984375 L 649.757812 406.125 L 649.757812 516.582031 C 649.757812 517.363281 649.835938 518.136719 649.988281 518.902344 C 650.140625 519.667969 650.363281 520.410156 650.664062 521.132812 C 650.960938 521.855469 651.328125 522.539062 651.761719 523.1875 C 652.199219 523.839844 652.691406 524.4375 653.242188 524.992188 C 653.796875 525.542969 654.398438 526.035156 655.046875 526.46875 C 655.695312 526.902344 656.382812 527.269531 657.101562 527.566406 C 657.824219 527.863281 658.570312 528.089844 659.335938 528.242188 C 660.101562 528.394531 660.875 528.46875 661.65625 528.46875 L 851.972656 528.46875 C 852.753906 528.46875 853.523438 528.390625 854.289062 528.242188 C 855.054688 528.089844 855.800781 527.863281 856.519531 527.5625 C 857.242188 527.265625 857.925781 526.898438 858.574219 526.464844 C 859.226562 526.03125 859.824219 525.539062 860.378906 524.988281 C 860.929688 524.433594 861.421875 523.835938 861.855469 523.183594 C 862.289062 522.535156 862.65625 521.851562 862.953125 521.128906 C 863.253906 520.410156 863.480469 519.664062 863.632812 518.898438 C 863.78125 518.132812 863.859375 517.363281 863.859375 516.582031 L 863.859375 467.296875 Z M 761.90625 406.125 "/><path style=" stroke:none;fill-rule:nonzero;fill:#21a366;fill-opacity:1;" d="M 761.90625 283.78125 L 661.65625 283.78125 C 660.875 283.78125 660.101562 283.859375 659.335938 284.011719 C 658.566406 284.164062 657.824219 284.386719 657.101562 284.6875 C 656.378906 284.984375 655.695312 285.351562 655.046875 285.785156 C 654.394531 286.21875 653.796875 286.714844 653.242188 287.265625 C 652.691406 287.820312 652.195312 288.417969 651.761719 289.070312 C 651.328125 289.71875 650.960938 290.402344 650.664062 291.125 C 650.363281 291.847656 650.140625 292.589844 649.988281 293.359375 C 649.835938 294.125 649.757812 294.898438 649.757812 295.679688 L 649.757812 344.953125 L 761.90625 406.125 L 812.882812 430.265625 L 863.859375 406.125 L 863.859375 344.953125 Z M 761.90625 283.78125 "/><path style=" stroke:none;fill-rule:nonzero;fill:#33c481;fill-opacity:1;" d="M 851.972656 283.78125 L 761.90625 283.78125 L 761.90625 344.953125 L 863.859375 344.953125 L 863.859375 295.679688 C 863.859375 294.898438 863.785156 294.125 863.632812 293.359375 C 863.480469 292.59375 863.253906 291.847656 862.957031 291.125 C 862.660156 290.40625 862.292969 289.71875 861.859375 289.070312 C 861.425781 288.421875 860.933594 287.820312 860.382812 287.265625 C 859.828125 286.714844 859.230469 286.222656 858.578125 285.785156 C 857.929688 285.351562 857.246094 284.984375 856.523438 284.6875 C 855.800781 284.386719 855.058594 284.164062 854.292969 284.011719 C 853.527344 283.859375 852.753906 283.78125 851.972656 283.78125 Z M 851.972656 283.78125 "/><path style=" stroke:none;fill-rule:nonzero;fill:#107c41;fill-opacity:1;" d="M 649.757812 344.953125 L 761.90625 344.953125 L 761.90625 406.125 L 649.757812 406.125 Z M 761.90625 406.125 L 863.859375 406.125 L 863.859375 467.296875 L 761.90625 467.296875 Z M 761.90625 406.125 "/><path style=" stroke:none;fill-rule:nonzero;fill:#000000;fill-opacity:0.5;" d="M 731.320312 355.148438 L 731.320312 475.757812 C 731.316406 476.539062 731.234375 477.316406 731.078125 478.082031 C 730.921875 478.847656 730.691406 479.589844 730.390625 480.3125 C 730.089844 481.03125 729.71875 481.71875 729.285156 482.367188 C 728.851562 483.015625 728.355469 483.617188 727.804688 484.171875 C 727.25 484.722656 726.648438 485.21875 726 485.652344 C 725.351562 486.085938 724.664062 486.457031 723.945312 486.757812 C 723.222656 487.058594 722.480469 487.289062 721.714844 487.445312 C 720.949219 487.601562 720.171875 487.683594 719.390625 487.6875 L 649.757812 487.6875 L 649.757812 344.953125 L 721.125 344.953125 C 721.792969 344.953125 722.457031 345.019531 723.113281 345.148438 C 723.769531 345.28125 724.40625 345.472656 725.027344 345.730469 C 725.644531 345.984375 726.234375 346.300781 726.789062 346.671875 C 727.347656 347.042969 727.859375 347.464844 728.335938 347.9375 C 728.808594 348.414062 729.230469 348.925781 729.601562 349.484375 C 729.972656 350.039062 730.289062 350.628906 730.542969 351.246094 C 730.800781 351.867188 730.992188 352.503906 731.125 353.160156 C 731.253906 353.816406 731.320312 354.480469 731.320312 355.148438 Z M 731.320312 355.148438 "/><path style=" stroke:none;fill-rule:nonzero;fill:#107c41;fill-opacity:1;" d="M 590.296875 334.757812 L 709.226562 334.757812 C 710.007812 334.757812 710.78125 334.835938 711.546875 334.988281 C 712.3125 335.140625 713.058594 335.363281 713.78125 335.664062 C 714.5 335.960938 715.1875 336.328125 715.835938 336.761719 C 716.488281 337.195312 717.085938 337.691406 717.640625 338.242188 C 718.191406 338.796875 718.6875 339.394531 719.121094 340.046875 C 719.554688 340.695312 719.921875 341.378906 720.21875 342.101562 C 720.519531 342.824219 720.742188 343.566406 720.894531 344.335938 C 721.046875 345.101562 721.125 345.875 721.125 346.65625 L 721.125 465.585938 C 721.125 466.367188 721.046875 467.140625 720.894531 467.90625 C 720.742188 468.671875 720.519531 469.414062 720.21875 470.136719 C 719.921875 470.859375 719.554688 471.542969 719.121094 472.195312 C 718.6875 472.84375 718.191406 473.445312 717.640625 473.996094 C 717.085938 474.550781 716.488281 475.042969 715.835938 475.476562 C 715.1875 475.910156 714.5 476.277344 713.78125 476.578125 C 713.058594 476.875 712.3125 477.101562 711.546875 477.253906 C 710.78125 477.40625 710.007812 477.480469 709.226562 477.480469 L 590.296875 477.480469 C 589.515625 477.480469 588.742188 477.40625 587.976562 477.253906 C 587.210938 477.101562 586.46875 476.875 585.746094 476.578125 C 585.023438 476.277344 584.339844 475.910156 583.6875 475.476562 C 583.039062 475.042969 582.4375 474.550781 581.886719 473.996094 C 581.332031 473.445312 580.839844 472.84375 580.40625 472.195312 C 579.972656 471.542969 579.605469 470.859375 579.304688 470.136719 C 579.007812 469.414062 578.78125 468.671875 578.628906 467.90625 C 578.476562 467.140625 578.402344 466.367188 578.402344 465.585938 L 578.402344 346.65625 C 578.402344 345.875 578.476562 345.101562 578.628906 344.335938 C 578.78125 343.566406 579.007812 342.824219 579.304688 342.101562 C 579.605469 341.378906 579.972656 340.695312 580.40625 340.046875 C 580.839844 339.394531 581.332031 338.796875 581.886719 338.242188 C 582.4375 337.691406 583.039062 337.195312 583.6875 336.761719 C 584.339844 336.328125 585.023438 335.960938 585.746094 335.664062 C 586.46875 335.363281 587.210938 335.140625 587.976562 334.988281 C 588.742188 334.835938 589.515625 334.757812 590.296875 334.757812 Z M 590.296875 334.757812 "/><path style=" stroke:none;fill-rule:nonzero;fill:#ffffff;fill-opacity:1;" d="M 609.914062 450.730469 L 638.777344 406.003906 L 612.339844 361.519531 L 633.617188 361.519531 L 648.046875 389.957031 C 649.371094 392.675781 650.285156 394.683594 650.789062 395.980469 L 650.972656 395.980469 C 651.929688 393.828125 652.917969 391.738281 653.957031 389.699219 L 669.382812 361.519531 L 688.917969 361.519531 L 661.796875 405.746094 L 689.601562 450.730469 L 668.824219 450.730469 L 652.152344 419.5 C 651.351562 418.171875 650.671875 416.78125 650.113281 415.332031 L 649.910156 415.332031 C 649.429688 416.765625 648.789062 418.125 647.984375 419.410156 L 630.816406 450.730469 Z M 609.914062 450.730469 "/></g></svg>