<svg xmlns="http://www.w3.org/2000/svg" xmlns:xlink="http://www.w3.org/1999/xlink" width="1920" zoomAndPan="magnify" viewBox="0 0 1440 809.999993" height="1080" preserveAspectRatio="xMidYMid meet" version="1.2"><defs><clipPath id="338de4829e"><path d="M 617 243 L 857.0625 243 L 857.0625 567 L 617 567 Z M 617 243 "/></clipPath><clipPath id="9c055be3eb"><path d="M 583.3125 368 L 824 368 L 824 492 L 583.3125 492 Z M 583.3125 368 "/></clipPath><clipPath id="00198428ce"><path d="M 777 244 L 857.0625 244 L 857.0625 381 L 777 381 Z M 777 244 "/></clipPath><clipPath id="fa9e2689de"><path d="M 776 243 L 857.0625 243 L 857.0625 324 L 776 324 Z M 776 243 "/></clipPath></defs><g id="26b76af6a4"><g clip-rule="nonzero" clip-path="url(#338de4829e)"><path style=" stroke:none;fill-rule:nonzero;fill:#f2f2f2;fill-opacity:1;" d="M 857.050781 323.644531 L 857.050781 550.832031 C 857.050781 559.792969 849.769531 567 840.796875 567 L 633.582031 567 C 624.609375 567 617.328125 559.726562 617.328125 550.832031 L 617.328125 259.167969 C 617.328125 250.207031 624.609375 243 633.582031 243 L 776.363281 243 L 788.328125 254.945312 Z M 857.050781 323.644531 "/></g><path style=" stroke:none;fill-rule:nonzero;fill:#cccccc;fill-opacity:1;" d="M 823.828125 394.222656 L 823.828125 491.355469 C 823.828125 498.5 818.039062 504.277344 810.824219 504.277344 L 617.328125 504.277344 L 617.328125 381.234375 L 810.824219 381.234375 C 818.039062 381.234375 823.828125 387.078125 823.828125 394.222656 Z M 823.828125 394.222656 "/><g clip-rule="nonzero" clip-path="url(#9c055be3eb)"><path style=" stroke:none;fill-rule:nonzero;fill:#ff0000;fill-opacity:1;" d="M 810.890625 491.355469 L 596.328125 491.355469 C 589.175781 491.355469 583.324219 485.511719 583.324219 478.371094 L 583.324219 381.300781 C 583.324219 374.160156 589.175781 368.316406 596.328125 368.316406 L 810.890625 368.316406 C 818.039062 368.316406 823.894531 374.160156 823.894531 381.300781 L 823.894531 478.371094 C 823.894531 485.511719 818.039062 491.355469 810.890625 491.355469 Z M 810.890625 491.355469 "/></g><g clip-rule="nonzero" clip-path="url(#00198428ce)"><path style=" stroke:none;fill-rule:nonzero;fill:#e6e6e6;fill-opacity:1;" d="M 857.050781 380.847656 L 777.664062 301.761719 L 777.664062 244.625 L 857.050781 323.644531 Z M 857.050781 380.847656 "/></g><g clip-rule="nonzero" clip-path="url(#fa9e2689de)"><path style=" stroke:none;fill-rule:nonzero;fill:#b3b3b3;fill-opacity:1;" d="M 857.050781 323.644531 L 792.617188 323.644531 C 783.644531 323.644531 776.363281 316.371094 776.363281 307.476562 L 776.363281 243 L 788.328125 254.945312 Z M 857.050781 323.644531 "/></g><path style=" stroke:none;fill-rule:nonzero;fill:#ffffff;fill-opacity:1;" d="M 670.449219 415.648438 C 670.449219 427.984375 662.191406 434.414062 653.089844 435.515625 C 649.707031 435.90625 647.171875 435.972656 643.269531 435.972656 L 635.988281 435.972656 L 635.988281 457.917969 L 619.539062 457.917969 L 619.539062 395.390625 L 643.203125 395.390625 C 647.105469 395.390625 649.640625 395.457031 653.023438 395.84375 C 662.125 396.882812 670.449219 403.3125 670.449219 415.648438 Z M 653.347656 415.648438 C 653.347656 410.910156 650.878906 408.507812 646.714844 408.117188 C 645.546875 408.050781 644.050781 408.050781 642.359375 408.050781 L 635.988281 408.050781 L 635.988281 423.308594 L 642.359375 423.308594 C 644.117188 423.308594 645.546875 423.308594 646.714844 423.246094 C 650.878906 422.789062 653.347656 420.324219 653.347656 415.648438 Z M 653.347656 415.648438 "/><path style=" stroke:none;fill-rule:nonzero;fill:#ffffff;fill-opacity:1;" d="M 736.507812 425.777344 C 736.507812 445.386719 724.480469 455.839844 709.914062 457.527344 C 706.730469 457.917969 705.296875 457.917969 701.917969 457.917969 L 678.183594 457.917969 L 678.183594 395.390625 L 701.917969 395.390625 C 705.296875 395.390625 706.730469 395.390625 709.914062 395.78125 C 724.480469 397.339844 736.507812 406.234375 736.507812 425.777344 Z M 719.40625 426.039062 C 719.40625 414.871094 713.75 408.894531 705.558594 408.179688 C 703.476562 407.988281 701.980469 407.988281 699.640625 407.988281 L 694.570312 407.988281 L 694.570312 445.125 L 699.640625 445.125 C 701.980469 445.125 703.476562 445.125 705.558594 444.933594 C 713.75 444.28125 719.40625 437.207031 719.40625 426.039062 Z M 719.40625 426.039062 "/><path style=" stroke:none;fill-rule:nonzero;fill:#ffffff;fill-opacity:1;" d="M 762.710938 420.195312 L 790.863281 420.195312 L 790.863281 432.855469 L 762.710938 432.855469 L 762.710938 457.851562 L 746.324219 457.851562 L 746.324219 395.324219 L 793.59375 395.324219 L 793.59375 407.988281 L 762.710938 407.988281 Z M 762.710938 420.195312 "/></g></svg>