<svg xmlns="http://www.w3.org/2000/svg" xmlns:xlink="http://www.w3.org/1999/xlink" width="1920" zoomAndPan="magnify" viewBox="0 0 1440 809.999993" height="1080" preserveAspectRatio="xMidYMid meet" version="1.2"><defs><clipPath id="ac75ce4a43"><path d="M 599.714844 243 L 840.464844 243 L 840.464844 567 L 599.714844 567 Z M 599.714844 243 "/></clipPath><clipPath id="31da625133"><path d="M 754 243 L 840.464844 243 L 840.464844 330 L 754 330 Z M 754 243 "/></clipPath></defs><g id="1bf8f2a072"><g clip-rule="nonzero" clip-path="url(#ac75ce4a43)"><path style=" stroke:none;fill-rule:nonzero;fill:#79a6d1;fill-opacity:1;" d="M 840.464844 329.011719 L 840.464844 550.214844 C 840.464844 550.761719 840.4375 551.304688 840.382812 551.847656 C 840.332031 552.390625 840.25 552.925781 840.144531 553.460938 C 840.039062 553.996094 839.90625 554.523438 839.746094 555.042969 C 839.589844 555.566406 839.40625 556.078125 839.195312 556.582031 C 838.988281 557.085938 838.753906 557.574219 838.5 558.054688 C 838.242188 558.535156 837.960938 559.003906 837.660156 559.457031 C 837.355469 559.910156 837.03125 560.347656 836.6875 560.765625 C 836.339844 561.1875 835.972656 561.589844 835.589844 561.976562 C 835.203125 562.363281 834.800781 562.726562 834.378906 563.074219 C 833.957031 563.417969 833.519531 563.742188 833.066406 564.046875 C 832.613281 564.347656 832.144531 564.628906 831.664062 564.882812 C 831.183594 565.140625 830.691406 565.375 830.1875 565.582031 C 829.6875 565.789062 829.171875 565.972656 828.652344 566.132812 C 828.128906 566.289062 827.601562 566.421875 827.066406 566.527344 C 826.53125 566.636719 825.992188 566.714844 825.449219 566.769531 C 824.910156 566.820312 824.363281 566.847656 823.820312 566.847656 L 616.359375 566.847656 C 615.816406 566.847656 615.269531 566.820312 614.730469 566.769531 C 614.1875 566.714844 613.648438 566.636719 613.113281 566.527344 C 612.578125 566.421875 612.050781 566.289062 611.527344 566.132812 C 611.007812 565.972656 610.496094 565.789062 609.992188 565.582031 C 609.488281 565.375 608.996094 565.140625 608.515625 564.882812 C 608.035156 564.628906 607.566406 564.347656 607.113281 564.046875 C 606.660156 563.742188 606.222656 563.417969 605.800781 563.074219 C 605.378906 562.726562 604.976562 562.363281 604.589844 561.976562 C 604.207031 561.589844 603.839844 561.1875 603.496094 560.765625 C 603.148438 560.347656 602.824219 559.910156 602.519531 559.457031 C 602.21875 559.003906 601.9375 558.535156 601.679688 558.054688 C 601.425781 557.574219 601.191406 557.085938 600.984375 556.582031 C 600.773438 556.078125 600.589844 555.566406 600.433594 555.042969 C 600.273438 554.523438 600.140625 553.996094 600.035156 553.460938 C 599.929688 552.925781 599.851562 552.390625 599.796875 551.847656 C 599.742188 551.304688 599.714844 550.761719 599.714844 550.214844 L 599.714844 259.785156 C 599.714844 259.238281 599.742188 258.695312 599.796875 258.152344 C 599.851562 257.613281 599.929688 257.074219 600.035156 256.539062 C 600.140625 256.003906 600.273438 255.476562 600.433594 254.957031 C 600.589844 254.433594 600.773438 253.921875 600.984375 253.417969 C 601.191406 252.914062 601.425781 252.425781 601.679688 251.945312 C 601.9375 251.464844 602.21875 250.996094 602.519531 250.542969 C 602.824219 250.089844 603.148438 249.652344 603.496094 249.234375 C 603.839844 248.8125 604.207031 248.410156 604.589844 248.023438 C 604.976562 247.636719 605.378906 247.273438 605.800781 246.925781 C 606.222656 246.582031 606.660156 246.257812 607.113281 245.953125 C 607.566406 245.652344 608.035156 245.371094 608.515625 245.117188 C 608.996094 244.859375 609.488281 244.625 609.992188 244.417969 C 610.496094 244.210938 611.007812 244.027344 611.527344 243.867188 C 612.050781 243.710938 612.578125 243.578125 613.113281 243.472656 C 613.648438 243.363281 614.1875 243.285156 614.730469 243.230469 C 615.269531 243.179688 615.816406 243.152344 616.359375 243.152344 L 754.535156 243.152344 Z M 840.464844 329.011719 "/></g><g clip-rule="nonzero" clip-path="url(#31da625133)"><path style=" stroke:none;fill-rule:nonzero;fill:#cfe8ff;fill-opacity:1;" d="M 840.464844 329.011719 L 761.515625 329.011719 C 761.058594 329.011719 760.605469 328.96875 760.15625 328.878906 C 759.707031 328.789062 759.269531 328.65625 758.847656 328.480469 C 758.421875 328.304688 758.019531 328.089844 757.640625 327.835938 C 757.257812 327.582031 756.90625 327.292969 756.582031 326.96875 C 756.257812 326.644531 755.96875 326.292969 755.714844 325.914062 C 755.457031 325.53125 755.242188 325.128906 755.066406 324.707031 C 754.894531 324.285156 754.761719 323.847656 754.671875 323.398438 C 754.582031 322.949219 754.535156 322.496094 754.535156 322.039062 L 754.535156 243.152344 Z M 840.464844 329.011719 "/></g><path style=" stroke:none;fill-rule:nonzero;fill:#ffffff;fill-opacity:1;" d="M 665.132812 414.78125 L 679.644531 414.78125 L 679.644531 455.320312 C 679.644531 468.128906 671.835938 474.914062 660.039062 474.914062 C 647.816406 474.914062 639.242188 467.789062 639.242188 454.386719 L 653.671875 454.386719 C 653.671875 459.480469 655.878906 461.9375 659.617188 461.9375 C 663.097656 461.9375 665.136719 459.730469 665.136719 455.320312 Z M 736.769531 433.949219 C 736.769531 443.785156 730.0625 452.945312 714.871094 452.945312 L 705.871094 452.945312 L 705.871094 474.320312 L 691.359375 474.320312 L 691.359375 414.78125 L 714.875 414.78125 C 729.46875 414.78125 736.769531 423.007812 736.769531 433.949219 Z M 722 433.949219 C 722 429.367188 719.539062 426.484375 713.765625 426.484375 L 705.871094 426.484375 L 705.871094 441.410156 L 713.765625 441.410156 C 719.539062 441.410156 722 438.527344 722 433.949219 Z M 769.363281 440.738281 L 769.363281 451.421875 L 787.789062 451.421875 C 785.582031 458.125 780.570312 461.941406 773.355469 461.941406 C 762.921875 461.941406 756.636719 455.496094 756.636719 444.46875 C 756.636719 434.121094 762.832031 427.503906 772.164062 427.503906 C 777.597656 427.503906 781.671875 429.625 783.878906 433.613281 L 799.917969 433.613281 C 796.777344 421.398438 786.421875 414.105469 772.164062 414.105469 C 754.335938 414.105469 741.859375 426.65625 741.859375 444.46875 C 741.859375 462.28125 754.421875 474.746094 772.25 474.746094 C 787.949219 474.746094 797.882812 464.484375 800.9375 454.222656 L 800.9375 440.734375 Z M 769.363281 440.738281 "/></g></svg>