<svg xmlns="http://www.w3.org/2000/svg" xmlns:xlink="http://www.w3.org/1999/xlink" width="1920" zoomAndPan="magnify" viewBox="0 0 1440 809.999993" height="1080" preserveAspectRatio="xMidYMid meet" version="1.2"><g id="9a4095a11e"><path style=" stroke:none;fill-rule:nonzero;fill:#ed6c47;fill-opacity:1;" d="M 598.5 404.21875 L 750.375 425.25 L 730.125 273.375 C 727.976562 273.367188 725.832031 273.414062 723.683594 273.515625 C 721.539062 273.613281 719.398438 273.765625 717.261719 273.96875 C 715.121094 274.171875 712.988281 274.429688 710.863281 274.738281 C 708.738281 275.046875 706.621094 275.410156 704.515625 275.820312 C 702.40625 276.234375 700.3125 276.699219 698.226562 277.214844 C 696.140625 277.730469 694.070312 278.296875 692.011719 278.914062 C 689.957031 279.53125 687.914062 280.199219 685.890625 280.917969 C 683.867188 281.632812 681.859375 282.402344 679.875 283.214844 C 677.886719 284.03125 675.921875 284.898438 673.976562 285.808594 C 672.035156 286.722656 670.113281 287.683594 668.214844 288.6875 C 666.320312 289.695312 664.449219 290.75 662.601562 291.847656 C 660.757812 292.945312 658.9375 294.089844 657.148438 295.277344 C 655.359375 296.464844 653.601562 297.695312 651.871094 298.96875 C 650.144531 300.246094 648.445312 301.558594 646.78125 302.917969 C 645.117188 304.277344 643.488281 305.671875 641.894531 307.109375 C 640.296875 308.546875 638.738281 310.023438 637.214844 311.539062 C 635.691406 313.054688 634.207031 314.601562 632.757812 316.191406 C 631.3125 317.777344 629.90625 319.398438 628.539062 321.054688 C 627.171875 322.710938 625.84375 324.398438 624.558594 326.121094 C 623.273438 327.84375 622.035156 329.59375 620.835938 331.375 C 619.636719 333.160156 618.480469 334.96875 617.371094 336.808594 C 616.261719 338.648438 615.199219 340.511719 614.179688 342.402344 C 613.164062 344.292969 612.191406 346.210938 611.269531 348.148438 C 610.34375 350.085938 609.46875 352.046875 608.640625 354.027344 C 607.8125 356.011719 607.035156 358.011719 606.304688 360.03125 C 605.574219 362.050781 604.894531 364.089844 604.265625 366.140625 C 603.636719 368.195312 603.054688 370.261719 602.527344 372.34375 C 602 374.425781 601.523438 376.519531 601.097656 378.625 C 600.671875 380.730469 600.300781 382.84375 599.976562 384.96875 C 599.65625 387.09375 599.386719 389.222656 599.171875 391.359375 C 598.953125 393.496094 598.789062 395.636719 598.675781 397.78125 C 598.566406 399.925781 598.507812 402.074219 598.5 404.21875 Z M 598.5 404.21875 "/><path style=" stroke:none;fill-rule:nonzero;fill:#ff8f6b;fill-opacity:1;" d="M 861.75 405 C 861.746094 402.847656 861.6875 400.695312 861.578125 398.546875 C 861.46875 396.394531 861.304688 394.25 861.089844 392.105469 C 860.875 389.964844 860.609375 387.828125 860.289062 385.699219 C 859.96875 383.570312 859.597656 381.449219 859.175781 379.339844 C 858.753906 377.230469 858.277344 375.128906 857.75 373.042969 C 857.226562 370.953125 856.648438 368.882812 856.019531 366.820312 C 855.394531 364.761719 854.714844 362.71875 853.988281 360.691406 C 853.261719 358.667969 852.484375 356.660156 851.65625 354.671875 C 850.832031 352.683594 849.957031 350.714844 849.035156 348.769531 C 848.113281 346.824219 847.144531 344.902344 846.128906 343.007812 C 845.109375 341.109375 844.050781 339.238281 842.941406 337.390625 C 841.832031 335.542969 840.679688 333.726562 839.484375 331.9375 C 838.285156 330.148438 837.046875 328.390625 835.761719 326.660156 C 834.480469 324.929688 833.15625 323.234375 831.789062 321.570312 C 830.421875 319.90625 829.015625 318.277344 827.570312 316.683594 C 826.125 315.085938 824.640625 313.527344 823.117188 312.007812 C 821.597656 310.484375 820.035156 309 818.441406 307.554688 C 816.847656 306.109375 815.21875 304.703125 813.554688 303.335938 C 811.890625 301.96875 810.195312 300.644531 808.464844 299.363281 C 806.734375 298.078125 804.976562 296.839844 803.1875 295.640625 C 801.398438 294.445312 799.582031 293.292969 797.734375 292.183594 C 795.886719 291.074219 794.015625 290.015625 792.117188 288.996094 C 790.222656 287.980469 788.300781 287.011719 786.355469 286.089844 C 784.410156 285.167969 782.441406 284.292969 780.453125 283.46875 C 778.464844 282.640625 776.457031 281.863281 774.433594 281.136719 C 772.40625 280.410156 770.363281 279.730469 768.304688 279.105469 C 766.242188 278.476562 764.171875 277.898438 762.082031 277.375 C 759.996094 276.847656 757.894531 276.371094 755.785156 275.949219 C 753.675781 275.527344 751.554688 275.15625 749.425781 274.835938 C 747.296875 274.515625 745.160156 274.25 743.019531 274.035156 C 740.875 273.820312 738.730469 273.65625 736.578125 273.546875 C 734.429688 273.4375 732.277344 273.378906 730.125 273.375 L 730.125 405 L 790.875 415.125 Z M 861.75 405 "/><path style=" stroke:none;fill-rule:nonzero;fill:#d35230;fill-opacity:1;" d="M 861.75 405 C 861.75 407.152344 861.695312 409.308594 861.589844 411.457031 C 861.484375 413.609375 861.328125 415.757812 861.117188 417.902344 C 860.90625 420.046875 860.640625 422.183594 860.324219 424.3125 C 860.007812 426.445312 859.640625 428.566406 859.222656 430.679688 C 858.800781 432.792969 858.328125 434.894531 857.804688 436.980469 C 857.28125 439.070312 856.707031 441.148438 856.082031 443.207031 C 855.457031 445.269531 854.78125 447.316406 854.054688 449.34375 C 853.328125 451.371094 852.554688 453.378906 851.730469 455.371094 C 850.90625 457.359375 850.035156 459.328125 849.113281 461.277344 C 848.191406 463.222656 847.222656 465.148438 846.207031 467.046875 C 845.191406 468.949219 844.132812 470.820312 843.023438 472.667969 C 841.917969 474.515625 840.765625 476.335938 839.566406 478.125 C 838.371094 479.917969 837.128906 481.679688 835.847656 483.410156 C 834.5625 485.140625 833.238281 486.835938 831.871094 488.503906 C 830.507812 490.167969 829.097656 491.796875 827.652344 493.394531 C 826.207031 494.988281 824.722656 496.550781 823.199219 498.074219 C 821.675781 499.597656 820.113281 501.082031 818.519531 502.527344 C 816.921875 503.972656 815.292969 505.382812 813.628906 506.746094 C 811.960938 508.113281 810.265625 509.4375 808.535156 510.722656 C 806.804688 512.003906 805.042969 513.246094 803.25 514.441406 C 801.460938 515.640625 799.640625 516.792969 797.792969 517.898438 C 795.945312 519.007812 794.074219 520.066406 792.171875 521.082031 C 790.273438 522.097656 788.347656 523.066406 786.402344 523.988281 C 784.453125 524.910156 782.484375 525.78125 780.496094 526.605469 C 778.503906 527.429688 776.496094 528.203125 774.46875 528.929688 C 772.441406 529.65625 770.394531 530.332031 768.332031 530.957031 C 766.273438 531.582031 764.195312 532.15625 762.105469 532.679688 C 760.019531 533.203125 757.917969 533.675781 755.804688 534.097656 C 753.691406 534.515625 751.570312 534.882812 749.4375 535.199219 C 747.308594 535.515625 745.171875 535.78125 743.027344 535.992188 C 740.882812 536.203125 738.734375 536.359375 736.582031 536.464844 C 734.433594 536.570312 732.277344 536.625 730.125 536.625 C 727.972656 536.625 725.816406 536.570312 723.667969 536.464844 C 721.515625 536.359375 719.367188 536.203125 717.222656 535.992188 C 715.078125 535.78125 712.941406 535.515625 710.8125 535.199219 C 708.679688 534.882812 706.558594 534.515625 704.445312 534.097656 C 702.332031 533.675781 700.230469 533.203125 698.144531 532.679688 C 696.054688 532.15625 693.976562 531.582031 691.917969 530.957031 C 689.855469 530.332031 687.808594 529.65625 685.78125 528.929688 C 683.753906 528.203125 681.746094 527.429688 679.753906 526.605469 C 677.765625 525.78125 675.796875 524.910156 673.847656 523.988281 C 671.902344 523.066406 669.976562 522.097656 668.078125 521.082031 C 666.175781 520.066406 664.304688 519.007812 662.457031 517.898438 C 660.609375 516.792969 658.789062 515.640625 656.996094 514.441406 C 655.207031 513.246094 653.445312 512.003906 651.714844 510.722656 C 649.984375 509.4375 648.289062 508.113281 646.621094 506.746094 C 644.957031 505.382812 643.328125 503.972656 641.730469 502.527344 C 640.136719 501.082031 638.574219 499.597656 637.050781 498.074219 C 635.527344 496.550781 634.042969 494.988281 632.597656 493.394531 C 631.152344 491.796875 629.742188 490.167969 628.378906 488.503906 C 627.011719 486.835938 625.6875 485.140625 624.402344 483.410156 C 623.121094 481.679688 621.878906 479.917969 620.683594 478.125 C 619.484375 476.335938 618.332031 474.515625 617.226562 472.667969 C 616.117188 470.820312 615.058594 468.949219 614.042969 467.046875 C 613.027344 465.148438 612.058594 463.222656 611.136719 461.277344 C 610.214844 459.328125 609.34375 457.359375 608.519531 455.371094 C 607.695312 453.378906 606.921875 451.371094 606.195312 449.34375 C 605.46875 447.316406 604.792969 445.269531 604.167969 443.207031 C 603.542969 441.148438 602.96875 439.070312 602.445312 436.980469 C 601.921875 434.894531 601.449219 432.792969 601.027344 430.679688 C 600.609375 428.566406 600.242188 426.445312 599.925781 424.3125 C 599.609375 422.183594 599.34375 420.046875 599.132812 417.902344 C 598.921875 415.757812 598.765625 413.609375 598.660156 411.457031 C 598.554688 409.308594 598.5 407.152344 598.5 405 Z M 861.75 405 "/><path style=" stroke:none;fill-rule:nonzero;fill:#000000;fill-opacity:0.5;" d="M 730.125 354.375 C 730.125 353.710938 730.058594 353.050781 729.929688 352.398438 C 729.800781 351.746094 729.609375 351.113281 729.355469 350.5 C 729.101562 349.886719 728.789062 349.300781 728.417969 348.75 C 728.050781 348.195312 727.628906 347.6875 727.160156 347.214844 C 726.6875 346.746094 726.179688 346.324219 725.625 345.957031 C 725.074219 345.585938 724.488281 345.273438 723.875 345.019531 C 723.261719 344.765625 722.628906 344.574219 721.976562 344.445312 C 721.324219 344.316406 720.664062 344.25 720 344.25 L 613.425781 344.25 C 609.136719 352.472656 605.761719 361.054688 603.300781 369.996094 L 603.300781 440.003906 C 605.609375 448.359375 608.71875 456.410156 612.625 464.152344 C 616.535156 471.894531 621.164062 479.175781 626.515625 486 L 718.308594 486 C 719.085938 485.996094 719.851562 485.921875 720.613281 485.769531 C 721.371094 485.613281 722.109375 485.390625 722.824219 485.09375 C 723.542969 484.792969 724.222656 484.429688 724.867188 484 C 725.511719 483.566406 726.105469 483.078125 726.65625 482.53125 C 727.203125 481.980469 727.691406 481.386719 728.125 480.742188 C 728.554688 480.097656 728.917969 479.417969 729.21875 478.699219 C 729.515625 477.984375 729.738281 477.246094 729.894531 476.488281 C 730.046875 475.726562 730.121094 474.960938 730.125 474.183594 Z M 730.125 354.375 "/><path style=" stroke:none;fill-rule:nonzero;fill:#000000;fill-opacity:0.1;" d="M 730.125 354.375 C 730.125 353.710938 730.058594 353.050781 729.929688 352.398438 C 729.800781 351.746094 729.609375 351.113281 729.355469 350.5 C 729.101562 349.886719 728.789062 349.300781 728.417969 348.75 C 728.050781 348.195312 727.628906 347.6875 727.160156 347.214844 C 726.6875 346.746094 726.179688 346.324219 725.625 345.957031 C 725.074219 345.585938 724.488281 345.273438 723.875 345.019531 C 723.261719 344.765625 722.628906 344.574219 721.976562 344.445312 C 721.324219 344.316406 720.664062 344.25 720 344.25 L 613.425781 344.25 C 611.972656 347.027344 610.617188 349.855469 609.367188 352.734375 C 608.117188 355.609375 606.972656 358.527344 605.929688 361.484375 C 604.890625 364.445312 603.957031 367.4375 603.128906 370.460938 C 602.304688 373.488281 601.585938 376.539062 600.980469 379.617188 C 600.371094 382.691406 599.875 385.785156 599.492188 388.898438 C 599.105469 392.011719 598.832031 395.132812 598.671875 398.265625 C 598.511719 401.398438 598.460938 404.53125 598.527344 407.667969 C 598.589844 410.804688 598.765625 413.933594 599.054688 417.058594 C 599.34375 420.179688 599.742188 423.289062 600.253906 426.382812 C 600.765625 429.476562 601.386719 432.550781 602.121094 435.597656 C 602.851562 438.648438 603.691406 441.667969 604.640625 444.65625 C 605.589844 447.648438 606.644531 450.597656 607.804688 453.511719 C 608.964844 456.425781 610.230469 459.292969 611.59375 462.117188 C 612.960938 464.941406 614.429688 467.710938 615.992188 470.429688 C 617.558594 473.144531 619.21875 475.804688 620.976562 478.402344 C 622.730469 481 624.578125 483.535156 626.515625 486 L 718.308594 486 C 719.085938 485.996094 719.851562 485.921875 720.613281 485.769531 C 721.371094 485.613281 722.109375 485.390625 722.824219 485.09375 C 723.542969 484.792969 724.222656 484.429688 724.867188 484 C 725.511719 483.566406 726.105469 483.078125 726.65625 482.53125 C 727.203125 481.980469 727.691406 481.386719 728.125 480.742188 C 728.554688 480.097656 728.917969 479.417969 729.21875 478.699219 C 729.515625 477.984375 729.738281 477.246094 729.894531 476.488281 C 730.046875 475.726562 730.121094 474.960938 730.125 474.183594 Z M 730.125 354.375 "/><path style=" stroke:none;fill-rule:nonzero;fill:#c43e1c;fill-opacity:1;" d="M 590.066406 334.125 L 708.183594 334.125 C 708.960938 334.125 709.726562 334.199219 710.488281 334.351562 C 711.25 334.503906 711.988281 334.726562 712.707031 335.023438 C 713.421875 335.320312 714.105469 335.683594 714.75 336.117188 C 715.394531 336.546875 715.992188 337.039062 716.539062 337.585938 C 717.085938 338.132812 717.578125 338.730469 718.007812 339.375 C 718.441406 340.019531 718.804688 340.703125 719.101562 341.417969 C 719.398438 342.136719 719.621094 342.875 719.773438 343.636719 C 719.925781 344.398438 720 345.164062 720 345.941406 L 720 464.058594 C 720 464.835938 719.925781 465.601562 719.773438 466.363281 C 719.621094 467.125 719.398438 467.863281 719.101562 468.582031 C 718.804688 469.296875 718.441406 469.980469 718.007812 470.625 C 717.578125 471.269531 717.085938 471.867188 716.539062 472.414062 C 715.992188 472.960938 715.394531 473.453125 714.75 473.882812 C 714.105469 474.316406 713.421875 474.679688 712.707031 474.976562 C 711.988281 475.273438 711.25 475.496094 710.488281 475.648438 C 709.726562 475.800781 708.960938 475.875 708.183594 475.875 L 590.066406 475.875 C 589.289062 475.875 588.523438 475.800781 587.761719 475.648438 C 587 475.496094 586.261719 475.273438 585.542969 474.976562 C 584.828125 474.679688 584.144531 474.316406 583.5 473.882812 C 582.855469 473.453125 582.257812 472.960938 581.710938 472.414062 C 581.164062 471.867188 580.671875 471.269531 580.242188 470.625 C 579.808594 469.980469 579.445312 469.296875 579.148438 468.582031 C 578.851562 467.863281 578.628906 467.125 578.476562 466.363281 C 578.324219 465.601562 578.25 464.835938 578.25 464.058594 L 578.25 345.941406 C 578.25 345.164062 578.324219 344.398438 578.476562 343.636719 C 578.628906 342.875 578.851562 342.136719 579.148438 341.417969 C 579.445312 340.703125 579.808594 340.019531 580.242188 339.375 C 580.671875 338.730469 581.164062 338.132812 581.710938 337.585938 C 582.257812 337.039062 582.855469 336.546875 583.5 336.117188 C 584.144531 335.683594 584.828125 335.320312 585.542969 335.023438 C 586.261719 334.726562 587 334.503906 587.761719 334.351562 C 588.523438 334.199219 589.289062 334.125 590.066406 334.125 Z M 590.066406 334.125 "/><path style=" stroke:none;fill-rule:nonzero;fill:#ffffff;fill-opacity:1;" d="M 651.089844 358.425781 C 653.375 358.273438 655.65625 358.320312 657.929688 358.570312 C 660.207031 358.816406 662.445312 359.261719 664.640625 359.90625 C 666.839844 360.546875 668.964844 361.378906 671.015625 362.394531 C 673.066406 363.410156 675.015625 364.597656 676.855469 365.957031 C 678.382812 367.316406 679.730469 368.832031 680.910156 370.496094 C 682.089844 372.164062 683.066406 373.941406 683.84375 375.832031 C 684.617188 377.722656 685.167969 379.671875 685.5 381.6875 C 685.828125 383.703125 685.929688 385.730469 685.796875 387.765625 C 685.847656 391.058594 685.5 394.308594 684.75 397.515625 C 684.003906 400.722656 682.882812 403.789062 681.382812 406.722656 C 679.867188 409.144531 678.039062 411.304688 675.898438 413.199219 C 673.761719 415.09375 671.394531 416.644531 668.808594 417.859375 C 662.8125 420.640625 656.511719 421.957031 649.90625 421.816406 L 632.023438 421.816406 L 632.023438 452.394531 L 613.6875 452.394531 L 613.6875 358.425781 Z M 632.023438 405.464844 L 647.808594 405.464844 C 650.308594 405.648438 652.761719 405.382812 655.164062 404.667969 C 657.570312 403.953125 659.765625 402.835938 661.761719 401.316406 C 662.578125 400.46875 663.300781 399.542969 663.929688 398.546875 C 664.554688 397.546875 665.070312 396.496094 665.476562 395.386719 C 665.882812 394.28125 666.171875 393.144531 666.339844 391.980469 C 666.507812 390.8125 666.554688 389.640625 666.480469 388.464844 C 666.480469 378.117188 660.453125 372.945312 648.394531 372.945312 L 632.023438 372.945312 Z M 632.023438 405.464844 "/></g></svg>