<svg xmlns="http://www.w3.org/2000/svg" xmlns:xlink="http://www.w3.org/1999/xlink" width="1920" zoomAndPan="magnify" viewBox="0 0 1440 809.999993" height="1080" preserveAspectRatio="xMidYMid meet" version="1.2"><g id="6444328f8f"><path style=" stroke:none;fill-rule:nonzero;fill:#41a5ee;fill-opacity:1;" d="M 849.933594 283.5 L 660.941406 283.5 C 660.164062 283.5 659.398438 283.578125 658.636719 283.730469 C 657.875 283.878906 657.136719 284.105469 656.421875 284.402344 C 655.703125 284.699219 655.023438 285.0625 654.378906 285.496094 C 653.734375 285.925781 653.136719 286.414062 652.589844 286.964844 C 652.039062 287.511719 651.550781 288.109375 651.121094 288.753906 C 650.6875 289.398438 650.324219 290.078125 650.027344 290.796875 C 649.730469 291.511719 649.503906 292.25 649.355469 293.011719 C 649.203125 293.773438 649.125 294.539062 649.125 295.316406 L 649.125 344.25 L 755.4375 360.703125 L 861.75 344.25 L 861.75 295.316406 C 861.75 294.539062 861.671875 293.773438 861.519531 293.011719 C 861.371094 292.25 861.144531 291.511719 860.847656 290.796875 C 860.550781 290.078125 860.1875 289.398438 859.753906 288.753906 C 859.324219 288.109375 858.835938 287.511719 858.285156 286.964844 C 857.738281 286.414062 857.140625 285.925781 856.496094 285.496094 C 855.851562 285.0625 855.171875 284.699219 854.453125 284.402344 C 853.738281 284.105469 853 283.878906 852.238281 283.730469 C 851.476562 283.578125 850.710938 283.5 849.933594 283.5 Z M 849.933594 283.5 "/><path style=" stroke:none;fill-rule:nonzero;fill:#2b7cd3;fill-opacity:1;" d="M 861.75 344.25 L 649.125 344.25 L 649.125 405 L 755.4375 425.25 L 861.75 405 Z M 861.75 344.25 "/><path style=" stroke:none;fill-rule:nonzero;fill:#185abd;fill-opacity:1;" d="M 861.75 405 L 649.125 405 L 649.125 465.75 L 755.4375 486 L 861.75 465.75 Z M 861.75 405 "/><path style=" stroke:none;fill-rule:nonzero;fill:#103f91;fill-opacity:1;" d="M 861.75 465.75 L 649.125 465.75 L 649.125 514.683594 C 649.125 515.460938 649.203125 516.226562 649.355469 516.988281 C 649.503906 517.75 649.730469 518.488281 650.027344 519.203125 C 650.324219 519.921875 650.6875 520.601562 651.121094 521.246094 C 651.550781 521.890625 652.039062 522.488281 652.589844 523.035156 C 653.136719 523.585938 653.734375 524.074219 654.378906 524.503906 C 655.023438 524.9375 655.703125 525.300781 656.421875 525.597656 C 657.136719 525.894531 657.875 526.121094 658.636719 526.269531 C 659.398438 526.421875 660.164062 526.5 660.941406 526.5 L 849.933594 526.5 C 850.710938 526.5 851.476562 526.421875 852.238281 526.269531 C 853 526.121094 853.738281 525.894531 854.453125 525.597656 C 855.171875 525.300781 855.851562 524.9375 856.496094 524.503906 C 857.140625 524.074219 857.738281 523.585938 858.285156 523.035156 C 858.835938 522.488281 859.324219 521.890625 859.753906 521.246094 C 860.1875 520.601562 860.550781 519.921875 860.847656 519.203125 C 861.144531 518.488281 861.371094 517.75 861.519531 516.988281 C 861.671875 516.226562 861.75 515.460938 861.75 514.683594 Z M 861.75 465.75 "/><path style=" stroke:none;fill-rule:nonzero;fill:#000000;fill-opacity:0.5;" d="M 730.125 354.375 L 730.125 474.152344 C 730.121094 474.929688 730.039062 475.699219 729.882812 476.460938 C 729.730469 477.21875 729.5 477.957031 729.203125 478.675781 C 728.902344 479.390625 728.535156 480.070312 728.105469 480.714844 C 727.671875 481.359375 727.179688 481.957031 726.632812 482.507812 C 726.082031 483.054688 725.484375 483.546875 724.839844 483.980469 C 724.195312 484.410156 723.515625 484.777344 722.800781 485.078125 C 722.082031 485.375 721.34375 485.605469 720.585938 485.757812 C 719.824219 485.914062 719.054688 485.996094 718.277344 486 L 649.125 486 L 649.125 344.25 L 720 344.25 C 720.664062 344.25 721.324219 344.316406 721.976562 344.445312 C 722.628906 344.574219 723.261719 344.765625 723.875 345.019531 C 724.488281 345.273438 725.074219 345.585938 725.625 345.957031 C 726.179688 346.324219 726.6875 346.746094 727.160156 347.214844 C 727.628906 347.6875 728.050781 348.195312 728.417969 348.75 C 728.789062 349.300781 729.101562 349.886719 729.355469 350.5 C 729.609375 351.113281 729.800781 351.746094 729.929688 352.398438 C 730.058594 353.050781 730.125 353.710938 730.125 354.375 Z M 730.125 354.375 "/><path style=" stroke:none;fill-rule:nonzero;fill:#185abd;fill-opacity:1;" d="M 590.066406 334.125 L 708.183594 334.125 C 708.960938 334.125 709.726562 334.199219 710.488281 334.351562 C 711.25 334.503906 711.988281 334.726562 712.707031 335.023438 C 713.421875 335.320312 714.105469 335.683594 714.75 336.117188 C 715.394531 336.546875 715.992188 337.039062 716.539062 337.585938 C 717.085938 338.132812 717.578125 338.730469 718.007812 339.375 C 718.441406 340.019531 718.804688 340.703125 719.101562 341.417969 C 719.398438 342.136719 719.621094 342.875 719.773438 343.636719 C 719.925781 344.398438 720 345.164062 720 345.941406 L 720 464.058594 C 720 464.835938 719.925781 465.601562 719.773438 466.363281 C 719.621094 467.125 719.398438 467.863281 719.101562 468.582031 C 718.804688 469.296875 718.441406 469.980469 718.007812 470.625 C 717.578125 471.269531 717.085938 471.867188 716.539062 472.414062 C 715.992188 472.960938 715.394531 473.453125 714.75 473.882812 C 714.105469 474.316406 713.421875 474.679688 712.707031 474.976562 C 711.988281 475.273438 711.25 475.496094 710.488281 475.648438 C 709.726562 475.800781 708.960938 475.875 708.183594 475.875 L 590.066406 475.875 C 589.289062 475.875 588.523438 475.800781 587.761719 475.648438 C 587 475.496094 586.261719 475.273438 585.542969 474.976562 C 584.828125 474.679688 584.144531 474.316406 583.5 473.882812 C 582.855469 473.453125 582.257812 472.960938 581.710938 472.414062 C 581.164062 471.867188 580.671875 471.269531 580.242188 470.625 C 579.808594 469.980469 579.445312 469.296875 579.148438 468.582031 C 578.851562 467.863281 578.628906 467.125 578.476562 466.363281 C 578.324219 465.601562 578.25 464.835938 578.25 464.058594 L 578.25 345.941406 C 578.25 345.164062 578.324219 344.398438 578.476562 343.636719 C 578.628906 342.875 578.851562 342.136719 579.148438 341.417969 C 579.445312 340.703125 579.808594 340.019531 580.242188 339.375 C 580.671875 338.730469 581.164062 338.132812 581.710938 337.585938 C 582.257812 337.039062 582.855469 336.546875 583.5 336.117188 C 584.144531 335.683594 584.828125 335.320312 585.542969 335.023438 C 586.261719 334.726562 587 334.503906 587.761719 334.351562 C 588.523438 334.199219 589.289062 334.125 590.066406 334.125 Z M 590.066406 334.125 "/><path style=" stroke:none;fill-rule:nonzero;fill:#ffffff;fill-opacity:1;" d="M 684.117188 449.296875 L 668.171875 449.296875 L 649.570312 388.171875 L 630.078125 449.296875 L 614.132812 449.296875 L 596.414062 360.703125 L 612.359375 360.703125 L 624.765625 422.71875 L 643.363281 362.476562 L 656.65625 362.476562 L 674.375 422.71875 L 686.78125 360.703125 L 701.835938 360.703125 Z M 684.117188 449.296875 "/></g></svg>